<svg xmlns="http://www.w3.org/2000/svg" xmlns:xlink="http://www.w3.org/1999/xlink" width="500" zoomAndPan="magnify" viewBox="0 0 375 374.999991" height="500" preserveAspectRatio="xMidYMid meet" version="1.0"><defs><g/><clipPath id="38b60bf0ec"><path d="M 131.453125 101.347656 L 218 101.347656 L 218 198.097656 L 131.453125 198.097656 Z M 131.453125 101.347656 " clip-rule="nonzero"/></clipPath><clipPath id="e007918616"><path d="M 153 103 L 243.203125 103 L 243.203125 196 L 153 196 Z M 153 103 " clip-rule="nonzero"/></clipPath></defs><g clip-path="url(#38b60bf0ec)"><path fill="#5ce1e6" d="M 139.601562 185.660156 L 157.75 133.910156 C 157.75 133.910156 160.164062 127.484375 163.347656 120.65625 C 164.519531 121.035156 165.785156 121.203125 167.089844 121.105469 C 169.792969 120.902344 172.164062 119.617188 173.804688 117.699219 C 175.445312 115.78125 176.363281 113.234375 176.164062 110.511719 C 175.964844 107.789062 174.683594 105.402344 172.78125 103.75 C 170.875 102.097656 168.34375 101.175781 165.636719 101.375 C 162.933594 101.578125 160.5625 102.863281 158.921875 104.78125 C 157.28125 106.699219 156.363281 109.246094 156.5625 111.96875 C 156.683594 113.617188 157.199219 115.136719 158.007812 116.449219 C 145.570312 137.953125 133.738281 178.898438 133.738281 178.898438 C 133.738281 178.898438 124.867188 197.660156 142.199219 197.320312 C 148.976562 197.183594 152.117188 198.210938 167.582031 186.464844 C 175.710938 180.292969 201.773438 164.71875 201.773438 164.71875 L 210.074219 181.507812 C 211.964844 187.007812 214.226562 193.238281 198.125 188.496094 C 198.132812 188.160156 198.128906 187.820312 198.101562 187.476562 C 197.902344 184.753906 196.625 182.367188 194.71875 180.714844 C 192.8125 179.0625 190.28125 178.140625 187.578125 178.34375 C 184.871094 178.542969 182.503906 179.832031 180.859375 181.746094 C 179.21875 183.664062 178.300781 186.210938 178.503906 188.9375 C 178.703125 191.660156 179.980469 194.042969 181.886719 195.695312 C 183.789062 197.351562 186.320312 198.273438 189.027344 198.070312 C 191.628906 197.875 193.917969 196.679688 195.550781 194.882812 C 215.597656 201.691406 223.453125 191.085938 212.644531 170.875 C 206.140625 158.71875 189.488281 121.125 189.488281 121.125 L 186.925781 129.207031 L 198.335938 157.347656 L 158.441406 183.855469 C 155.28125 186.457031 136.257812 194.628906 139.601562 185.65625 Z M 185.710938 191.226562 C 184.945312 190.5625 184.429688 189.601562 184.347656 188.5 C 184.269531 187.402344 184.636719 186.375 185.300781 185.601562 C 185.960938 184.828125 186.917969 184.308594 188.007812 184.230469 C 189.101562 184.148438 190.121094 184.519531 190.890625 185.1875 C 191.65625 185.851562 192.171875 186.816406 192.253906 187.914062 C 192.332031 189.011719 191.964844 190.039062 191.300781 190.8125 C 190.640625 191.585938 189.683594 192.105469 188.59375 192.183594 C 187.5 192.265625 186.480469 191.894531 185.710938 191.226562 Z M 169.363281 113.84375 C 168.703125 114.617188 167.746094 115.136719 166.652344 115.21875 C 165.5625 115.300781 164.542969 114.929688 163.773438 114.261719 C 163.007812 113.59375 162.492188 112.632812 162.410156 111.535156 C 162.328125 110.433594 162.699219 109.40625 163.359375 108.636719 C 164.023438 107.863281 164.980469 107.34375 166.070312 107.261719 C 167.164062 107.179688 168.183594 107.550781 168.949219 108.21875 C 169.71875 108.886719 170.234375 109.847656 170.3125 110.945312 C 170.394531 112.046875 170.027344 113.074219 169.363281 113.84375 Z M 169.363281 113.84375 " fill-opacity="1" fill-rule="evenodd"/></g><g clip-path="url(#e007918616)"><path fill="#d9d9d9" d="M 178.351562 113.339844 L 163.71875 153.328125 C 163.324219 153.3125 162.925781 153.316406 162.523438 153.347656 C 159.816406 153.546875 157.449219 154.835938 155.804688 156.75 C 154.164062 158.667969 153.25 161.214844 153.449219 163.941406 C 153.648438 166.664062 154.925781 169.046875 156.832031 170.699219 C 158.734375 172.355469 161.265625 173.277344 163.972656 173.074219 C 166.679688 172.875 169.046875 171.585938 170.691406 169.667969 C 172.332031 167.753906 173.246094 165.203125 173.046875 162.480469 C 172.847656 159.757812 171.570312 157.371094 169.664062 155.71875 C 169.578125 155.644531 169.492188 155.574219 169.40625 155.503906 L 180.347656 124.699219 C 187.277344 105.503906 198.828125 113.375 201.480469 117.824219 C 209.597656 131.4375 221.789062 158.382812 227.832031 173.605469 C 228.21875 174.578125 228.546875 175.523438 228.824219 176.4375 C 227.710938 177.023438 226.726562 177.8125 225.921875 178.757812 C 224.277344 180.675781 223.363281 183.222656 223.5625 185.945312 C 223.761719 188.667969 225.039062 191.054688 226.945312 192.707031 C 228.851562 194.359375 231.382812 195.28125 234.085938 195.082031 C 236.792969 194.878906 239.160156 193.59375 240.804688 191.675781 C 242.445312 189.757812 243.363281 187.210938 243.160156 184.484375 C 242.960938 181.761719 241.683594 179.378906 239.777344 177.726562 C 238.542969 176.652344 237.042969 175.886719 235.398438 175.539062 C 234.074219 170.066406 231.808594 164.707031 230.113281 161.542969 C 223.269531 148.789062 213.675781 121.261719 202.988281 110.394531 C 187.292969 94.441406 178.355469 113.34375 178.355469 113.34375 Z M 162.957031 159.230469 C 164.046875 159.148438 165.066406 159.523438 165.835938 160.1875 C 166.601562 160.855469 167.117188 161.816406 167.199219 162.914062 C 167.28125 164.015625 166.910156 165.042969 166.25 165.816406 C 165.585938 166.585938 164.628906 167.105469 163.539062 167.1875 C 162.445312 167.269531 161.425781 166.898438 160.660156 166.230469 C 159.890625 165.5625 159.375 164.601562 159.296875 163.503906 C 159.214844 162.402344 159.582031 161.375 160.246094 160.605469 C 160.90625 159.832031 161.863281 159.3125 162.957031 159.230469 Z M 230.773438 188.234375 C 230.003906 187.570312 229.488281 186.609375 229.410156 185.507812 C 229.328125 184.410156 229.699219 183.382812 230.359375 182.609375 C 231.023438 181.835938 231.976562 181.316406 233.070312 181.238281 C 234.160156 181.15625 235.183594 181.527344 235.949219 182.195312 C 236.71875 182.859375 237.234375 183.820312 237.3125 184.921875 C 237.394531 186.019531 237.023438 187.046875 236.363281 187.820312 C 235.699219 188.59375 234.746094 189.113281 233.652344 189.191406 C 232.5625 189.273438 231.539062 188.902344 230.773438 188.234375 Z M 230.773438 188.234375 " fill-opacity="1" fill-rule="evenodd"/></g><g fill="#5ce1e6" fill-opacity="1"><g transform="translate(15.353003, 232.643452)"><g><path d="M 2.125 -13.96875 C 2.820312 -13.9375 3.242188 -13.921875 3.390625 -13.921875 L 4.140625 -13.921875 C 4.515625 -13.921875 4.8125 -13.945312 5.03125 -14 L 5.03125 0 L 2.125 0 Z M 2.125 -13.96875 "/></g></g></g><g fill="#5ce1e6" fill-opacity="1"><g transform="translate(25.514362, 232.643452)"><g><path d="M 1.890625 0 C 1.929688 -0.238281 1.953125 -0.5 1.953125 -0.78125 L 1.953125 -13.921875 L 4.046875 -13.921875 L 9.59375 -5.1875 L 9.59375 -13.203125 C 9.59375 -13.585938 9.5625 -13.828125 9.5 -13.921875 L 12.3125 -13.921875 C 12.28125 -13.640625 12.265625 -13.332031 12.265625 -13 L 12.265625 0 L 10.09375 0 L 4.625 -8.390625 L 4.625 0 Z M 1.890625 0 "/></g></g></g><g fill="#5ce1e6" fill-opacity="1"><g transform="translate(42.74002, 232.643452)"><g><path d="M 9.140625 -6.015625 C 8.804688 -6.054688 8.375 -6.078125 7.84375 -6.078125 L 4.671875 -6.078125 L 4.671875 0 L 1.796875 0 L 1.796875 -14 C 1.984375 -13.976562 2.203125 -13.96875 2.453125 -13.96875 L 3.21875 -13.9375 C 3.75 -13.925781 4.300781 -13.921875 4.875 -13.921875 C 6.59375 -13.921875 8.234375 -13.945312 9.796875 -14 C 9.722656 -13.382812 9.6875 -12.566406 9.6875 -11.546875 C 9.6875 -11.429688 9.691406 -11.347656 9.703125 -11.296875 L 9.6875 -11.265625 C 9.3125 -11.367188 8.796875 -11.421875 8.140625 -11.421875 L 4.671875 -11.421875 L 4.671875 -8.546875 L 7.71875 -8.546875 C 8.488281 -8.546875 8.953125 -8.566406 9.109375 -8.609375 Z M 9.140625 -6.015625 "/></g></g></g><g fill="#5ce1e6" fill-opacity="1"><g transform="translate(56.43876, 232.643452)"><g><path d="M 2.9375 -1.65625 C 2.300781 -2.257812 1.800781 -2.988281 1.4375 -3.84375 C 1.070312 -4.695312 0.890625 -5.628906 0.890625 -6.640625 C 0.890625 -7.660156 1.0625 -8.625 1.40625 -9.53125 C 1.75 -10.4375 2.238281 -11.234375 2.875 -11.921875 C 3.507812 -12.609375 4.273438 -13.15625 5.171875 -13.5625 C 6.066406 -13.976562 7.078125 -14.1875 8.203125 -14.1875 C 10.117188 -14.1875 11.738281 -13.578125 13.0625 -12.359375 C 14.46875 -11.066406 15.171875 -9.316406 15.171875 -7.109375 C 15.171875 -4.972656 14.445312 -3.195312 13 -1.78125 C 12.101562 -0.90625 11.039062 -0.304688 9.8125 0.015625 C 9.195312 0.179688 8.484375 0.265625 7.671875 0.265625 C 6.859375 0.265625 6.023438 0.0976562 5.171875 -0.234375 C 4.316406 -0.578125 3.570312 -1.050781 2.9375 -1.65625 Z M 3.796875 -6.78125 C 3.796875 -6.132812 3.90625 -5.535156 4.125 -4.984375 C 4.34375 -4.441406 4.644531 -3.976562 5.03125 -3.59375 C 5.84375 -2.769531 6.890625 -2.359375 8.171875 -2.359375 C 9.390625 -2.359375 10.367188 -2.75 11.109375 -3.53125 C 11.867188 -4.351562 12.25 -5.46875 12.25 -6.875 C 12.25 -8.195312 11.890625 -9.304688 11.171875 -10.203125 C 10.390625 -11.148438 9.328125 -11.625 7.984375 -11.625 C 6.679688 -11.625 5.644531 -11.140625 4.875 -10.171875 C 4.15625 -9.273438 3.796875 -8.144531 3.796875 -6.78125 Z M 3.796875 -6.78125 "/></g></g></g><g fill="#5ce1e6" fill-opacity="1"><g transform="translate(75.506367, 232.643452)"><g><path d="M 10.203125 -13.140625 L 10 -10.0625 L 9.9375 -10.046875 C 9.414062 -10.816406 8.535156 -11.320312 7.296875 -11.5625 C 6.898438 -11.632812 6.519531 -11.671875 6.15625 -11.671875 C 5.800781 -11.671875 5.5 -11.640625 5.25 -11.578125 C 5 -11.515625 4.78125 -11.425781 4.59375 -11.3125 C 4.207031 -11.050781 4.015625 -10.722656 4.015625 -10.328125 C 4.015625 -9.796875 4.179688 -9.394531 4.515625 -9.125 C 4.941406 -8.800781 5.640625 -8.578125 6.609375 -8.453125 C 7.578125 -8.328125 8.351562 -8.148438 8.9375 -7.921875 C 9.519531 -7.703125 10.003906 -7.421875 10.390625 -7.078125 C 11.097656 -6.429688 11.453125 -5.523438 11.453125 -4.359375 C 11.453125 -2.816406 10.875 -1.632812 9.71875 -0.8125 C 8.726562 -0.09375 7.476562 0.265625 5.96875 0.265625 C 4.75 0.265625 3.546875 0.0351562 2.359375 -0.421875 C 1.972656 -0.578125 1.632812 -0.757812 1.34375 -0.96875 L 1.453125 -4.453125 L 1.5 -4.484375 C 2.363281 -2.992188 3.78125 -2.25 5.75 -2.25 C 7.15625 -2.25 8.085938 -2.585938 8.546875 -3.265625 C 8.691406 -3.492188 8.765625 -3.75 8.765625 -4.03125 C 8.765625 -4.3125 8.71875 -4.546875 8.625 -4.734375 C 8.539062 -4.921875 8.394531 -5.082031 8.1875 -5.21875 C 7.78125 -5.476562 7.097656 -5.648438 6.140625 -5.734375 C 5.179688 -5.828125 4.398438 -6 3.796875 -6.25 C 3.191406 -6.507812 2.707031 -6.820312 2.34375 -7.1875 C 1.6875 -7.863281 1.359375 -8.800781 1.359375 -10 C 1.359375 -11.238281 1.796875 -12.242188 2.671875 -13.015625 C 3.554688 -13.796875 4.75 -14.1875 6.25 -14.1875 C 7.757812 -14.1875 9.078125 -13.835938 10.203125 -13.140625 Z M 10.203125 -13.140625 "/></g></g></g><g fill="#5ce1e6" fill-opacity="1"><g transform="translate(90.994731, 232.643452)"><g><path d="M 4.71875 0 C 4.8125 -0.269531 4.859375 -0.90625 4.859375 -1.90625 L 4.859375 -4.8125 C 3.648438 -7.46875 2.878906 -9.125 2.546875 -9.78125 C 2.210938 -10.445312 1.929688 -10.972656 1.703125 -11.359375 C 0.972656 -12.585938 0.53125 -13.289062 0.375 -13.46875 C 0.226562 -13.65625 0.078125 -13.804688 -0.078125 -13.921875 L 3.53125 -13.921875 C 3.613281 -13.785156 3.722656 -13.578125 3.859375 -13.296875 L 6.390625 -7.953125 C 6.503906 -8.242188 6.640625 -8.570312 6.796875 -8.9375 C 8.316406 -12.207031 9.09375 -13.867188 9.125 -13.921875 L 12.578125 -13.921875 C 12.210938 -13.640625 11.773438 -13.039062 11.265625 -12.125 C 11.097656 -11.851562 10.9375 -11.539062 10.78125 -11.1875 L 8.421875 -6.265625 C 8.148438 -5.671875 7.921875 -5.132812 7.734375 -4.65625 L 7.734375 -1.65625 C 7.734375 -0.957031 7.773438 -0.40625 7.859375 0 Z M 4.71875 0 "/></g></g></g><g fill="#5ce1e6" fill-opacity="1"><g transform="translate(106.483096, 232.643452)"><g><path d="M 10.203125 -13.140625 L 10 -10.0625 L 9.9375 -10.046875 C 9.414062 -10.816406 8.535156 -11.320312 7.296875 -11.5625 C 6.898438 -11.632812 6.519531 -11.671875 6.15625 -11.671875 C 5.800781 -11.671875 5.5 -11.640625 5.25 -11.578125 C 5 -11.515625 4.78125 -11.425781 4.59375 -11.3125 C 4.207031 -11.050781 4.015625 -10.722656 4.015625 -10.328125 C 4.015625 -9.796875 4.179688 -9.394531 4.515625 -9.125 C 4.941406 -8.800781 5.640625 -8.578125 6.609375 -8.453125 C 7.578125 -8.328125 8.351562 -8.148438 8.9375 -7.921875 C 9.519531 -7.703125 10.003906 -7.421875 10.390625 -7.078125 C 11.097656 -6.429688 11.453125 -5.523438 11.453125 -4.359375 C 11.453125 -2.816406 10.875 -1.632812 9.71875 -0.8125 C 8.726562 -0.09375 7.476562 0.265625 5.96875 0.265625 C 4.75 0.265625 3.546875 0.0351562 2.359375 -0.421875 C 1.972656 -0.578125 1.632812 -0.757812 1.34375 -0.96875 L 1.453125 -4.453125 L 1.5 -4.484375 C 2.363281 -2.992188 3.78125 -2.25 5.75 -2.25 C 7.15625 -2.25 8.085938 -2.585938 8.546875 -3.265625 C 8.691406 -3.492188 8.765625 -3.75 8.765625 -4.03125 C 8.765625 -4.3125 8.71875 -4.546875 8.625 -4.734375 C 8.539062 -4.921875 8.394531 -5.082031 8.1875 -5.21875 C 7.78125 -5.476562 7.097656 -5.648438 6.140625 -5.734375 C 5.179688 -5.828125 4.398438 -6 3.796875 -6.25 C 3.191406 -6.507812 2.707031 -6.820312 2.34375 -7.1875 C 1.6875 -7.863281 1.359375 -8.800781 1.359375 -10 C 1.359375 -11.238281 1.796875 -12.242188 2.671875 -13.015625 C 3.554688 -13.796875 4.75 -14.1875 6.25 -14.1875 C 7.757812 -14.1875 9.078125 -13.835938 10.203125 -13.140625 Z M 10.203125 -13.140625 "/></g></g></g><g fill="#5ce1e6" fill-opacity="1"><g transform="translate(121.971465, 232.643452)"><g/></g></g><g fill="#5ce1e6" fill-opacity="1"><g transform="translate(132.0805, 232.643452)"><g><path d="M 8.046875 -14.1875 C 9.347656 -14.1875 10.457031 -13.957031 11.375 -13.5 L 11.375 -10.296875 L 11.359375 -10.28125 C 10.960938 -10.875 10.140625 -11.269531 8.890625 -11.46875 C 8.515625 -11.53125 8.046875 -11.5625 7.484375 -11.5625 C 6.921875 -11.5625 6.363281 -11.453125 5.8125 -11.234375 C 5.269531 -11.023438 4.828125 -10.726562 4.484375 -10.34375 C 3.804688 -9.582031 3.46875 -8.5 3.46875 -7.09375 C 3.46875 -5.445312 3.894531 -4.222656 4.75 -3.421875 C 5.457031 -2.753906 6.398438 -2.421875 7.578125 -2.421875 C 8.898438 -2.421875 9.972656 -2.703125 10.796875 -3.265625 C 11.097656 -3.460938 11.351562 -3.710938 11.5625 -4.015625 L 11.59375 -4 L 11.59375 -1.0625 C 10.53125 -0.175781 9.09375 0.265625 7.28125 0.265625 C 5.15625 0.265625 3.488281 -0.410156 2.28125 -1.765625 C 1.125 -3.054688 0.546875 -4.765625 0.546875 -6.890625 C 0.546875 -9.148438 1.179688 -10.925781 2.453125 -12.21875 C 3.734375 -13.53125 5.597656 -14.1875 8.046875 -14.1875 Z M 8.046875 -14.1875 "/></g></g></g><g fill="#5ce1e6" fill-opacity="1"><g transform="translate(147.51653, 232.643452)"><g><path d="M 2.9375 -1.65625 C 2.300781 -2.257812 1.800781 -2.988281 1.4375 -3.84375 C 1.070312 -4.695312 0.890625 -5.628906 0.890625 -6.640625 C 0.890625 -7.660156 1.0625 -8.625 1.40625 -9.53125 C 1.75 -10.4375 2.238281 -11.234375 2.875 -11.921875 C 3.507812 -12.609375 4.273438 -13.15625 5.171875 -13.5625 C 6.066406 -13.976562 7.078125 -14.1875 8.203125 -14.1875 C 10.117188 -14.1875 11.738281 -13.578125 13.0625 -12.359375 C 14.46875 -11.066406 15.171875 -9.316406 15.171875 -7.109375 C 15.171875 -4.972656 14.445312 -3.195312 13 -1.78125 C 12.101562 -0.90625 11.039062 -0.304688 9.8125 0.015625 C 9.195312 0.179688 8.484375 0.265625 7.671875 0.265625 C 6.859375 0.265625 6.023438 0.0976562 5.171875 -0.234375 C 4.316406 -0.578125 3.570312 -1.050781 2.9375 -1.65625 Z M 3.796875 -6.78125 C 3.796875 -6.132812 3.90625 -5.535156 4.125 -4.984375 C 4.34375 -4.441406 4.644531 -3.976562 5.03125 -3.59375 C 5.84375 -2.769531 6.890625 -2.359375 8.171875 -2.359375 C 9.390625 -2.359375 10.367188 -2.75 11.109375 -3.53125 C 11.867188 -4.351562 12.25 -5.46875 12.25 -6.875 C 12.25 -8.195312 11.890625 -9.304688 11.171875 -10.203125 C 10.390625 -11.148438 9.328125 -11.625 7.984375 -11.625 C 6.679688 -11.625 5.644531 -11.140625 4.875 -10.171875 C 4.15625 -9.273438 3.796875 -8.144531 3.796875 -6.78125 Z M 3.796875 -6.78125 "/></g></g></g><g fill="#5ce1e6" fill-opacity="1"><g transform="translate(166.584137, 232.643452)"><g><path d="M 5.1875 0.265625 C 4.0625 0.265625 3 0.171875 2 -0.015625 L 2 -14.015625 C 2.914062 -14.128906 3.984375 -14.1875 5.203125 -14.1875 C 6.421875 -14.1875 7.523438 -14.019531 8.515625 -13.6875 C 9.503906 -13.351562 10.328125 -12.878906 10.984375 -12.265625 C 12.328125 -11.035156 13 -9.316406 13 -7.109375 C 13 -4.628906 12.253906 -2.75 10.765625 -1.46875 C 9.421875 -0.3125 7.5625 0.265625 5.1875 0.265625 Z M 4.71875 -2.296875 C 5.175781 -2.210938 5.628906 -2.171875 6.078125 -2.171875 C 6.535156 -2.171875 7.023438 -2.257812 7.546875 -2.4375 C 8.066406 -2.613281 8.519531 -2.890625 8.90625 -3.265625 C 9.726562 -4.054688 10.140625 -5.210938 10.140625 -6.734375 C 10.140625 -9.234375 9.226562 -10.769531 7.40625 -11.34375 C 6.8125 -11.53125 6.117188 -11.625 5.328125 -11.625 L 5.046875 -11.625 C 4.941406 -11.625 4.832031 -11.625 4.71875 -11.625 Z M 4.71875 -2.296875 "/></g></g></g><g fill="#5ce1e6" fill-opacity="1"><g transform="translate(183.862117, 232.643452)"><g><path d="M 2.125 -13.96875 C 2.820312 -13.9375 3.242188 -13.921875 3.390625 -13.921875 L 4.140625 -13.921875 C 4.515625 -13.921875 4.8125 -13.945312 5.03125 -14 L 5.03125 0 L 2.125 0 Z M 2.125 -13.96875 "/></g></g></g><g fill="#5ce1e6" fill-opacity="1"><g transform="translate(194.023474, 232.643452)"><g><path d="M 1.890625 0 C 1.929688 -0.238281 1.953125 -0.5 1.953125 -0.78125 L 1.953125 -13.921875 L 4.046875 -13.921875 L 9.59375 -5.1875 L 9.59375 -13.203125 C 9.59375 -13.585938 9.5625 -13.828125 9.5 -13.921875 L 12.3125 -13.921875 C 12.28125 -13.640625 12.265625 -13.332031 12.265625 -13 L 12.265625 0 L 10.09375 0 L 4.625 -8.390625 L 4.625 0 Z M 1.890625 0 "/></g></g></g><g fill="#5ce1e6" fill-opacity="1"><g transform="translate(211.249132, 232.643452)"><g><path d="M 13.265625 -8.390625 C 13.140625 -8.160156 13.078125 -7.59375 13.078125 -6.6875 L 13.078125 -3.4375 C 13.078125 -2.457031 12.566406 -1.601562 11.546875 -0.875 C 10.492188 -0.113281 9.203125 0.265625 7.671875 0.265625 C 5.546875 0.265625 3.851562 -0.398438 2.59375 -1.734375 C 1.375 -3.003906 0.765625 -4.625 0.765625 -6.59375 C 0.765625 -8.6875 1.382812 -10.429688 2.625 -11.828125 C 4.007812 -13.398438 5.921875 -14.1875 8.359375 -14.1875 C 9.984375 -14.1875 11.269531 -13.867188 12.21875 -13.234375 L 12.0625 -10.15625 L 11.96875 -10.125 C 11.726562 -10.550781 11.25 -10.898438 10.53125 -11.171875 C 9.84375 -11.429688 9.125 -11.5625 8.375 -11.5625 C 7.625 -11.5625 6.96875 -11.441406 6.40625 -11.203125 C 5.84375 -10.972656 5.367188 -10.640625 4.984375 -10.203125 C 4.160156 -9.296875 3.75 -8.101562 3.75 -6.625 C 3.75 -5.332031 4.113281 -4.296875 4.84375 -3.515625 C 5.5625 -2.742188 6.492188 -2.359375 7.640625 -2.359375 C 8.898438 -2.359375 9.753906 -2.6875 10.203125 -3.34375 C 10.335938 -3.550781 10.40625 -3.785156 10.40625 -4.046875 L 10.40625 -5.78125 L 9.046875 -5.78125 C 8.328125 -5.78125 7.9375 -5.71875 7.875 -5.59375 L 7.84375 -5.609375 L 7.75 -8.34375 C 7.945312 -8.289062 8.738281 -8.265625 10.125 -8.265625 L 11.359375 -8.265625 C 12.128906 -8.265625 12.753906 -8.316406 13.234375 -8.421875 Z M 13.265625 -8.390625 "/></g></g></g><g fill="#5ce1e6" fill-opacity="1"><g transform="translate(228.527123, 232.643452)"><g/></g></g><g fill="#5ce1e6" fill-opacity="1"><g transform="translate(238.636169, 232.643452)"><g><path d="M 10.203125 -13.140625 L 10 -10.0625 L 9.9375 -10.046875 C 9.414062 -10.816406 8.535156 -11.320312 7.296875 -11.5625 C 6.898438 -11.632812 6.519531 -11.671875 6.15625 -11.671875 C 5.800781 -11.671875 5.5 -11.640625 5.25 -11.578125 C 5 -11.515625 4.78125 -11.425781 4.59375 -11.3125 C 4.207031 -11.050781 4.015625 -10.722656 4.015625 -10.328125 C 4.015625 -9.796875 4.179688 -9.394531 4.515625 -9.125 C 4.941406 -8.800781 5.640625 -8.578125 6.609375 -8.453125 C 7.578125 -8.328125 8.351562 -8.148438 8.9375 -7.921875 C 9.519531 -7.703125 10.003906 -7.421875 10.390625 -7.078125 C 11.097656 -6.429688 11.453125 -5.523438 11.453125 -4.359375 C 11.453125 -2.816406 10.875 -1.632812 9.71875 -0.8125 C 8.726562 -0.09375 7.476562 0.265625 5.96875 0.265625 C 4.75 0.265625 3.546875 0.0351562 2.359375 -0.421875 C 1.972656 -0.578125 1.632812 -0.757812 1.34375 -0.96875 L 1.453125 -4.453125 L 1.5 -4.484375 C 2.363281 -2.992188 3.78125 -2.25 5.75 -2.25 C 7.15625 -2.25 8.085938 -2.585938 8.546875 -3.265625 C 8.691406 -3.492188 8.765625 -3.75 8.765625 -4.03125 C 8.765625 -4.3125 8.71875 -4.546875 8.625 -4.734375 C 8.539062 -4.921875 8.394531 -5.082031 8.1875 -5.21875 C 7.78125 -5.476562 7.097656 -5.648438 6.140625 -5.734375 C 5.179688 -5.828125 4.398438 -6 3.796875 -6.25 C 3.191406 -6.507812 2.707031 -6.820312 2.34375 -7.1875 C 1.6875 -7.863281 1.359375 -8.800781 1.359375 -10 C 1.359375 -11.238281 1.796875 -12.242188 2.671875 -13.015625 C 3.554688 -13.796875 4.75 -14.1875 6.25 -14.1875 C 7.757812 -14.1875 9.078125 -13.835938 10.203125 -13.140625 Z M 10.203125 -13.140625 "/></g></g></g><g fill="#5ce1e6" fill-opacity="1"><g transform="translate(254.124533, 232.643452)"><g><path d="M 2.9375 -1.65625 C 2.300781 -2.257812 1.800781 -2.988281 1.4375 -3.84375 C 1.070312 -4.695312 0.890625 -5.628906 0.890625 -6.640625 C 0.890625 -7.660156 1.0625 -8.625 1.40625 -9.53125 C 1.75 -10.4375 2.238281 -11.234375 2.875 -11.921875 C 3.507812 -12.609375 4.273438 -13.15625 5.171875 -13.5625 C 6.066406 -13.976562 7.078125 -14.1875 8.203125 -14.1875 C 10.117188 -14.1875 11.738281 -13.578125 13.0625 -12.359375 C 14.46875 -11.066406 15.171875 -9.316406 15.171875 -7.109375 C 15.171875 -4.972656 14.445312 -3.195312 13 -1.78125 C 12.101562 -0.90625 11.039062 -0.304688 9.8125 0.015625 C 9.195312 0.179688 8.484375 0.265625 7.671875 0.265625 C 6.859375 0.265625 6.023438 0.0976562 5.171875 -0.234375 C 4.316406 -0.578125 3.570312 -1.050781 2.9375 -1.65625 Z M 3.796875 -6.78125 C 3.796875 -6.132812 3.90625 -5.535156 4.125 -4.984375 C 4.34375 -4.441406 4.644531 -3.976562 5.03125 -3.59375 C 5.84375 -2.769531 6.890625 -2.359375 8.171875 -2.359375 C 9.390625 -2.359375 10.367188 -2.75 11.109375 -3.53125 C 11.867188 -4.351562 12.25 -5.46875 12.25 -6.875 C 12.25 -8.195312 11.890625 -9.304688 11.171875 -10.203125 C 10.390625 -11.148438 9.328125 -11.625 7.984375 -11.625 C 6.679688 -11.625 5.644531 -11.140625 4.875 -10.171875 C 4.15625 -9.273438 3.796875 -8.144531 3.796875 -6.78125 Z M 3.796875 -6.78125 "/></g></g></g><g fill="#5ce1e6" fill-opacity="1"><g transform="translate(273.192151, 232.643452)"><g><path d="M 3.84375 0 C 2.8125 0 2.128906 0.0195312 1.796875 0.0625 L 1.796875 -13.984375 C 1.960938 -13.941406 2.304688 -13.921875 2.828125 -13.921875 C 3.359375 -13.921875 3.972656 -13.9375 4.671875 -13.96875 L 4.671875 -2.515625 L 6.84375 -2.515625 C 7.46875 -2.515625 7.972656 -2.535156 8.359375 -2.578125 C 8.304688 -0.941406 8.28125 -0.09375 8.28125 -0.03125 L 8.28125 0.078125 C 7.59375 0.0234375 6.445312 0 4.84375 0 Z M 3.84375 0 "/></g></g></g><g fill="#5ce1e6" fill-opacity="1"><g transform="translate(285.143147, 232.643452)"><g><path d="M 9.734375 -13.96875 C 10.171875 -13.9375 10.53125 -13.921875 10.8125 -13.921875 L 11.6875 -13.921875 C 11.976562 -13.921875 12.285156 -13.945312 12.609375 -14 L 12.609375 -5.34375 C 12.609375 -3.632812 12.085938 -2.257812 11.046875 -1.21875 C 10.054688 -0.226562 8.820312 0.265625 7.34375 0.265625 C 5.71875 0.265625 4.398438 -0.15625 3.390625 -1 C 2.265625 -1.945312 1.703125 -3.316406 1.703125 -5.109375 L 1.703125 -13.96875 C 2.285156 -13.9375 2.832031 -13.921875 3.34375 -13.921875 C 3.851562 -13.921875 4.273438 -13.945312 4.609375 -14 L 4.609375 -4.96875 C 4.609375 -4.09375 4.878906 -3.410156 5.421875 -2.921875 C 5.921875 -2.472656 6.550781 -2.25 7.3125 -2.25 C 8.425781 -2.25 9.164062 -2.820312 9.53125 -3.96875 C 9.664062 -4.375 9.734375 -4.882812 9.734375 -5.5 Z M 9.734375 -13.96875 "/></g></g></g><g fill="#5ce1e6" fill-opacity="1"><g transform="translate(302.463001, 232.643452)"><g><path d="M 6.828125 0.0625 C 6.492188 0.0195312 5.628906 0 4.234375 0 L 3.90625 0 L 3.90625 -11.578125 L 1.828125 -11.578125 C 1.210938 -11.578125 0.847656 -11.546875 0.734375 -11.484375 C 0.628906 -11.421875 0.546875 -11.363281 0.484375 -11.3125 L 0.453125 -11.328125 L 0.453125 -14 L 0.484375 -14.03125 C 0.710938 -13.957031 1.332031 -13.921875 2.34375 -13.921875 L 8.90625 -13.921875 C 9.519531 -13.921875 9.878906 -13.953125 9.984375 -14.015625 C 10.097656 -14.078125 10.191406 -14.132812 10.265625 -14.1875 L 10.296875 -14.171875 L 10.296875 -11.5 L 10.265625 -11.46875 C 10.023438 -11.539062 9.398438 -11.578125 8.390625 -11.578125 L 6.828125 -11.578125 Z M 6.828125 0.0625 "/></g></g></g><g fill="#5ce1e6" fill-opacity="1"><g transform="translate(316.2036, 232.643452)"><g><path d="M 2.125 -13.96875 C 2.820312 -13.9375 3.242188 -13.921875 3.390625 -13.921875 L 4.140625 -13.921875 C 4.515625 -13.921875 4.8125 -13.945312 5.03125 -14 L 5.03125 0 L 2.125 0 Z M 2.125 -13.96875 "/></g></g></g><g fill="#5ce1e6" fill-opacity="1"><g transform="translate(326.364969, 232.643452)"><g><path d="M 2.9375 -1.65625 C 2.300781 -2.257812 1.800781 -2.988281 1.4375 -3.84375 C 1.070312 -4.695312 0.890625 -5.628906 0.890625 -6.640625 C 0.890625 -7.660156 1.0625 -8.625 1.40625 -9.53125 C 1.75 -10.4375 2.238281 -11.234375 2.875 -11.921875 C 3.507812 -12.609375 4.273438 -13.15625 5.171875 -13.5625 C 6.066406 -13.976562 7.078125 -14.1875 8.203125 -14.1875 C 10.117188 -14.1875 11.738281 -13.578125 13.0625 -12.359375 C 14.46875 -11.066406 15.171875 -9.316406 15.171875 -7.109375 C 15.171875 -4.972656 14.445312 -3.195312 13 -1.78125 C 12.101562 -0.90625 11.039062 -0.304688 9.8125 0.015625 C 9.195312 0.179688 8.484375 0.265625 7.671875 0.265625 C 6.859375 0.265625 6.023438 0.0976562 5.171875 -0.234375 C 4.316406 -0.578125 3.570312 -1.050781 2.9375 -1.65625 Z M 3.796875 -6.78125 C 3.796875 -6.132812 3.90625 -5.535156 4.125 -4.984375 C 4.34375 -4.441406 4.644531 -3.976562 5.03125 -3.59375 C 5.84375 -2.769531 6.890625 -2.359375 8.171875 -2.359375 C 9.390625 -2.359375 10.367188 -2.75 11.109375 -3.53125 C 11.867188 -4.351562 12.25 -5.46875 12.25 -6.875 C 12.25 -8.195312 11.890625 -9.304688 11.171875 -10.203125 C 10.390625 -11.148438 9.328125 -11.625 7.984375 -11.625 C 6.679688 -11.625 5.644531 -11.140625 4.875 -10.171875 C 4.15625 -9.273438 3.796875 -8.144531 3.796875 -6.78125 Z M 3.796875 -6.78125 "/></g></g></g><g fill="#5ce1e6" fill-opacity="1"><g transform="translate(345.432587, 232.643452)"><g><path d="M 1.890625 0 C 1.929688 -0.238281 1.953125 -0.5 1.953125 -0.78125 L 1.953125 -13.921875 L 4.046875 -13.921875 L 9.59375 -5.1875 L 9.59375 -13.203125 C 9.59375 -13.585938 9.5625 -13.828125 9.5 -13.921875 L 12.3125 -13.921875 C 12.28125 -13.640625 12.265625 -13.332031 12.265625 -13 L 12.265625 0 L 10.09375 0 L 4.625 -8.390625 L 4.625 0 Z M 1.890625 0 "/></g></g></g><g fill="#d9d9d9" fill-opacity="1"><g transform="translate(136.271759, 254.597671)"><g><path d="M 14.171875 -10.890625 C 14.617188 -10.890625 15.007812 -10.90625 15.34375 -10.9375 L 15.265625 -10.625 C 14.660156 -10.488281 14.171875 -10.039062 13.796875 -9.28125 L 9.1875 0.078125 L 8.9375 0.078125 L 7.828125 -6.96875 L 3.640625 0.078125 L 3.390625 0.078125 L 2.171875 -9.640625 C 2.085938 -10.273438 1.804688 -10.601562 1.328125 -10.625 L 1.390625 -10.9375 C 1.796875 -10.90625 2.304688 -10.890625 2.921875 -10.890625 C 3.660156 -10.890625 4.210938 -10.90625 4.578125 -10.9375 L 4.515625 -10.625 C 4.203125 -10.601562 3.972656 -10.53125 3.828125 -10.40625 C 3.691406 -10.28125 3.625 -10.050781 3.625 -9.71875 C 3.625 -9.664062 3.632812 -9.535156 3.65625 -9.328125 L 4.515625 -1.953125 L 7.75 -7.4375 L 7.40625 -9.640625 C 7.300781 -10.273438 7.070312 -10.601562 6.71875 -10.625 L 6.78125 -10.9375 C 7.144531 -10.90625 7.601562 -10.890625 8.15625 -10.890625 C 9.039062 -10.890625 9.695312 -10.90625 10.125 -10.9375 L 10.0625 -10.625 C 9.601562 -10.601562 9.285156 -10.539062 9.109375 -10.4375 C 8.929688 -10.332031 8.84375 -10.125 8.84375 -9.8125 C 8.84375 -9.675781 8.859375 -9.515625 8.890625 -9.328125 L 10 -2.296875 L 13.015625 -8.421875 C 13.347656 -9.128906 13.515625 -9.628906 13.515625 -9.921875 C 13.515625 -10.179688 13.421875 -10.359375 13.234375 -10.453125 C 13.046875 -10.554688 12.742188 -10.613281 12.328125 -10.625 L 12.40625 -10.9375 C 12.988281 -10.90625 13.578125 -10.890625 14.171875 -10.890625 Z M 14.171875 -10.890625 "/></g></g></g><g fill="#d9d9d9" fill-opacity="1"><g transform="translate(150.967649, 254.597671)"><g><path d="M 0.328125 -2.203125 C 0.328125 -3.015625 0.503906 -3.882812 0.859375 -4.8125 C 1.222656 -5.75 1.742188 -6.539062 2.421875 -7.1875 C 3.097656 -7.832031 3.882812 -8.15625 4.78125 -8.15625 C 5.445312 -8.15625 5.96875 -7.953125 6.34375 -7.546875 C 6.71875 -7.140625 6.90625 -6.535156 6.90625 -5.734375 C 6.90625 -4.910156 6.722656 -4.035156 6.359375 -3.109375 C 5.992188 -2.179688 5.472656 -1.394531 4.796875 -0.75 C 4.117188 -0.101562 3.332031 0.21875 2.4375 0.21875 C 1.78125 0.21875 1.265625 0.015625 0.890625 -0.390625 C 0.515625 -0.796875 0.328125 -1.398438 0.328125 -2.203125 Z M 4.6875 -7.84375 C 4.164062 -7.84375 3.671875 -7.503906 3.203125 -6.828125 C 2.734375 -6.160156 2.359375 -5.328125 2.078125 -4.328125 C 1.796875 -3.328125 1.65625 -2.363281 1.65625 -1.4375 C 1.65625 -0.96875 1.722656 -0.625 1.859375 -0.40625 C 2.003906 -0.195312 2.226562 -0.09375 2.53125 -0.09375 C 3.050781 -0.09375 3.546875 -0.425781 4.015625 -1.09375 C 4.484375 -1.757812 4.859375 -2.59375 5.140625 -3.59375 C 5.429688 -4.601562 5.578125 -5.570312 5.578125 -6.5 C 5.578125 -6.957031 5.503906 -7.296875 5.359375 -7.515625 C 5.210938 -7.734375 4.988281 -7.84375 4.6875 -7.84375 Z M 4.6875 -7.84375 "/></g></g></g><g fill="#d9d9d9" fill-opacity="1"><g transform="translate(159.272898, 254.597671)"><g><path d="M 6.09375 -8.15625 C 6.375 -8.15625 6.597656 -8.070312 6.765625 -7.90625 C 6.929688 -7.738281 7.015625 -7.523438 7.015625 -7.265625 C 7.015625 -6.960938 6.90625 -6.703125 6.6875 -6.484375 C 6.46875 -6.265625 6.210938 -6.15625 5.921875 -6.15625 C 5.742188 -6.15625 5.597656 -6.203125 5.484375 -6.296875 C 5.367188 -6.398438 5.3125 -6.539062 5.3125 -6.71875 C 5.3125 -6.957031 5.375 -7.15625 5.5 -7.3125 C 5.625 -7.476562 5.789062 -7.609375 6 -7.703125 C 5.957031 -7.742188 5.898438 -7.765625 5.828125 -7.765625 C 5.273438 -7.765625 4.671875 -7.164062 4.015625 -5.96875 C 3.367188 -4.769531 2.753906 -3.1875 2.171875 -1.21875 L 1.875 0 L 0.53125 0 L 2.375 -6.625 C 2.445312 -6.851562 2.484375 -7.050781 2.484375 -7.21875 C 2.484375 -7.457031 2.375 -7.578125 2.15625 -7.578125 C 1.9375 -7.578125 1.726562 -7.457031 1.53125 -7.21875 C 1.34375 -6.976562 1.148438 -6.570312 0.953125 -6 L 0.75 -5.4375 L 0.46875 -5.4375 L 0.84375 -6.5625 C 1.21875 -7.625 1.84375 -8.15625 2.71875 -8.15625 C 3.300781 -8.15625 3.59375 -7.851562 3.59375 -7.25 C 3.59375 -6.96875 3.519531 -6.546875 3.375 -5.984375 L 2.890625 -4.046875 C 3.441406 -5.535156 3.960938 -6.59375 4.453125 -7.21875 C 4.941406 -7.84375 5.488281 -8.15625 6.09375 -8.15625 Z M 6.09375 -8.15625 "/></g></g></g><g fill="#d9d9d9" fill-opacity="1"><g transform="translate(166.621087, 254.597671)"><g><path d="M 6.671875 -8.15625 C 6.972656 -8.15625 7.195312 -8.078125 7.34375 -7.921875 C 7.5 -7.765625 7.578125 -7.5625 7.578125 -7.3125 C 7.578125 -7.09375 7.5 -6.859375 7.34375 -6.609375 C 7.195312 -6.367188 6.976562 -6.25 6.6875 -6.25 C 6.476562 -6.25 6.320312 -6.304688 6.21875 -6.421875 C 6.125 -6.546875 6.078125 -6.695312 6.078125 -6.875 C 6.078125 -7.007812 6.125 -7.164062 6.21875 -7.34375 C 6.3125 -7.53125 6.429688 -7.691406 6.578125 -7.828125 L 6.546875 -7.828125 C 6.429688 -7.828125 6.332031 -7.804688 6.25 -7.765625 C 6.164062 -7.734375 6.070312 -7.679688 5.96875 -7.609375 C 5.832031 -7.492188 5.707031 -7.347656 5.59375 -7.171875 C 5.488281 -6.992188 5.367188 -6.75 5.234375 -6.4375 C 4.972656 -5.894531 4.710938 -5.460938 4.453125 -5.140625 C 4.191406 -4.816406 3.8125 -4.601562 3.3125 -4.5 C 3.96875 -4.46875 4.503906 -4.328125 4.921875 -4.078125 C 5.335938 -3.835938 5.546875 -3.460938 5.546875 -2.953125 C 5.546875 -2.828125 5.53125 -2.6875 5.5 -2.53125 L 5.1875 -0.984375 C 5.164062 -0.898438 5.15625 -0.796875 5.15625 -0.671875 C 5.15625 -0.566406 5.179688 -0.488281 5.234375 -0.4375 C 5.285156 -0.382812 5.375 -0.359375 5.5 -0.359375 C 5.695312 -0.359375 5.882812 -0.476562 6.0625 -0.71875 C 6.25 -0.957031 6.441406 -1.363281 6.640625 -1.9375 L 6.828125 -2.5 L 7.109375 -2.5 L 6.75 -1.375 C 6.40625 -0.3125 5.789062 0.21875 4.90625 0.21875 C 4.613281 0.21875 4.375 0.132812 4.1875 -0.03125 C 4 -0.195312 3.90625 -0.445312 3.90625 -0.78125 C 3.90625 -0.9375 3.925781 -1.09375 3.96875 -1.25 L 4.25 -2.578125 C 4.300781 -2.816406 4.328125 -3.007812 4.328125 -3.15625 C 4.328125 -3.539062 4.1875 -3.832031 3.90625 -4.03125 C 3.625 -4.226562 3.15625 -4.351562 2.5 -4.40625 L 1.203125 0 L -0.140625 0 L 2.921875 -10.296875 C 2.972656 -10.472656 3 -10.613281 3 -10.71875 C 3 -10.914062 2.914062 -11.0625 2.75 -11.15625 C 2.582031 -11.257812 2.3125 -11.3125 1.9375 -11.3125 L 2.015625 -11.640625 C 3.085938 -11.648438 4.015625 -11.859375 4.796875 -12.265625 L 2.546875 -4.578125 C 3.023438 -4.617188 3.414062 -4.734375 3.71875 -4.921875 C 4.019531 -5.109375 4.25 -5.320312 4.40625 -5.5625 C 4.5625 -5.8125 4.734375 -6.140625 4.921875 -6.546875 C 5.054688 -6.859375 5.179688 -7.109375 5.296875 -7.296875 C 5.421875 -7.492188 5.570312 -7.660156 5.75 -7.796875 C 6.0625 -8.035156 6.367188 -8.15625 6.671875 -8.15625 Z M 6.671875 -8.15625 "/></g></g></g><g fill="#d9d9d9" fill-opacity="1"><g transform="translate(175.343116, 254.597671)"><g/></g></g><g fill="#d9d9d9" fill-opacity="1"><g transform="translate(180.020815, 254.597671)"><g><path d="M 8.890625 -11.03125 C 8.523438 -10.101562 8.222656 -9.054688 7.984375 -7.890625 L 7.671875 -7.890625 C 7.734375 -8.191406 7.765625 -8.484375 7.765625 -8.765625 C 7.765625 -9.367188 7.582031 -9.867188 7.21875 -10.265625 C 6.863281 -10.660156 6.316406 -10.859375 5.578125 -10.859375 C 4.921875 -10.859375 4.394531 -10.691406 4 -10.359375 C 3.601562 -10.023438 3.40625 -9.535156 3.40625 -8.890625 C 3.40625 -8.390625 3.5625 -7.925781 3.875 -7.5 C 4.195312 -7.082031 4.671875 -6.582031 5.296875 -6 C 5.734375 -5.601562 6.085938 -5.253906 6.359375 -4.953125 C 6.628906 -4.648438 6.851562 -4.316406 7.03125 -3.953125 C 7.21875 -3.597656 7.3125 -3.21875 7.3125 -2.8125 C 7.3125 -2.144531 7.117188 -1.582031 6.734375 -1.125 C 6.347656 -0.664062 5.859375 -0.328125 5.265625 -0.109375 C 4.671875 0.109375 4.050781 0.21875 3.40625 0.21875 C 2.863281 0.21875 2.429688 0.148438 2.109375 0.015625 C 1.785156 -0.117188 1.488281 -0.289062 1.21875 -0.5 C 1.019531 -0.644531 0.832031 -0.71875 0.65625 -0.71875 C 0.539062 -0.71875 0.441406 -0.65625 0.359375 -0.53125 C 0.273438 -0.414062 0.164062 -0.203125 0.03125 0.109375 L -0.28125 0.109375 C -0.113281 -0.285156 0.046875 -0.753906 0.203125 -1.296875 C 0.367188 -1.847656 0.554688 -2.613281 0.765625 -3.59375 L 1.078125 -3.59375 C 0.984375 -3.113281 0.9375 -2.734375 0.9375 -2.453125 C 0.9375 -1.703125 1.140625 -1.117188 1.546875 -0.703125 C 1.960938 -0.296875 2.597656 -0.09375 3.453125 -0.09375 C 4.148438 -0.09375 4.703125 -0.25 5.109375 -0.5625 C 5.523438 -0.882812 5.734375 -1.367188 5.734375 -2.015625 C 5.734375 -2.410156 5.65625 -2.769531 5.5 -3.09375 C 5.34375 -3.425781 5.148438 -3.71875 4.921875 -3.96875 C 4.703125 -4.226562 4.398438 -4.546875 4.015625 -4.921875 C 3.597656 -5.316406 3.269531 -5.648438 3.03125 -5.921875 C 2.789062 -6.203125 2.582031 -6.523438 2.40625 -6.890625 C 2.238281 -7.265625 2.15625 -7.679688 2.15625 -8.140625 C 2.15625 -8.773438 2.316406 -9.316406 2.640625 -9.765625 C 2.972656 -10.222656 3.394531 -10.566406 3.90625 -10.796875 C 4.425781 -11.023438 4.976562 -11.140625 5.5625 -11.140625 C 5.976562 -11.140625 6.335938 -11.085938 6.640625 -10.984375 C 6.953125 -10.890625 7.257812 -10.726562 7.5625 -10.5 C 7.8125 -10.3125 7.984375 -10.21875 8.078125 -10.21875 C 8.160156 -10.21875 8.238281 -10.28125 8.3125 -10.40625 C 8.382812 -10.539062 8.472656 -10.75 8.578125 -11.03125 Z M 8.890625 -11.03125 "/></g></g></g><g fill="#d9d9d9" fill-opacity="1"><g transform="translate(189.344855, 254.597671)"><g><path d="M 11.71875 -2.5 L 11.328125 -1.375 C 10.960938 -0.3125 10.34375 0.21875 9.46875 0.21875 C 9 0.21875 8.675781 0.078125 8.5 -0.203125 C 8.40625 -0.359375 8.359375 -0.535156 8.359375 -0.734375 C 8.359375 -1.015625 8.445312 -1.414062 8.625 -1.9375 L 10.09375 -6.359375 C 10.195312 -6.671875 10.25 -6.941406 10.25 -7.171875 C 10.25 -7.492188 10.132812 -7.65625 9.90625 -7.65625 C 9.320312 -7.65625 8.660156 -6.984375 7.921875 -5.640625 C 7.191406 -4.296875 6.484375 -2.519531 5.796875 -0.3125 L 5.796875 -0.40625 L 5.703125 0 L 4.3125 0 L 6.234375 -6.359375 C 6.335938 -6.671875 6.390625 -6.929688 6.390625 -7.140625 C 6.390625 -7.484375 6.242188 -7.65625 5.953125 -7.65625 C 5.578125 -7.65625 5.148438 -7.351562 4.671875 -6.75 C 4.203125 -6.144531 3.738281 -5.320312 3.28125 -4.28125 C 2.820312 -3.25 2.421875 -2.101562 2.078125 -0.84375 L 1.875 0 L 0.53125 0 L 2.375 -6.625 C 2.445312 -6.914062 2.484375 -7.101562 2.484375 -7.1875 C 2.484375 -7.445312 2.375 -7.578125 2.15625 -7.578125 C 1.9375 -7.578125 1.726562 -7.457031 1.53125 -7.21875 C 1.34375 -6.976562 1.148438 -6.570312 0.953125 -6 L 0.75 -5.4375 L 0.46875 -5.4375 L 0.84375 -6.5625 C 1.21875 -7.625 1.84375 -8.15625 2.71875 -8.15625 C 3.3125 -8.15625 3.609375 -7.84375 3.609375 -7.21875 C 3.609375 -6.957031 3.53125 -6.546875 3.375 -5.984375 L 2.890625 -4.03125 C 3.503906 -5.53125 4.082031 -6.59375 4.625 -7.21875 C 5.175781 -7.84375 5.789062 -8.15625 6.46875 -8.15625 C 7.144531 -8.15625 7.484375 -7.796875 7.484375 -7.078125 C 7.484375 -6.753906 7.410156 -6.332031 7.265625 -5.8125 L 6.71875 -3.75 C 7.144531 -4.832031 7.546875 -5.6875 7.921875 -6.3125 C 8.304688 -6.945312 8.695312 -7.410156 9.09375 -7.703125 C 9.488281 -8.003906 9.929688 -8.15625 10.421875 -8.15625 C 11.140625 -8.15625 11.5 -7.769531 11.5 -7 C 11.5 -6.664062 11.425781 -6.269531 11.28125 -5.8125 L 9.78125 -1.3125 C 9.695312 -1.039062 9.65625 -0.84375 9.65625 -0.71875 C 9.65625 -0.476562 9.78125 -0.359375 10.03125 -0.359375 C 10.238281 -0.359375 10.4375 -0.472656 10.625 -0.703125 C 10.820312 -0.929688 11.019531 -1.34375 11.21875 -1.9375 L 11.421875 -2.5 Z M 11.71875 -2.5 "/></g></g></g><g fill="#d9d9d9" fill-opacity="1"><g transform="translate(202.605171, 254.597671)"><g><path d="M 7.03125 -2.515625 L 7.3125 -2.515625 L 6.9375 -1.390625 C 6.726562 -0.828125 6.460938 -0.414062 6.140625 -0.15625 C 5.828125 0.09375 5.5 0.21875 5.15625 0.21875 C 4.957031 0.21875 4.785156 0.179688 4.640625 0.109375 C 4.503906 0.0351562 4.394531 -0.0625 4.3125 -0.1875 C 4.21875 -0.34375 4.171875 -0.519531 4.171875 -0.71875 C 4.171875 -0.9375 4.207031 -1.179688 4.28125 -1.453125 C 4.351562 -1.722656 4.398438 -1.890625 4.421875 -1.953125 L 4.6875 -3.078125 C 4.195312 -1.921875 3.695312 -1.082031 3.1875 -0.5625 C 2.675781 -0.0390625 2.144531 0.21875 1.59375 0.21875 C 1.113281 0.21875 0.75 0.0507812 0.5 -0.28125 C 0.257812 -0.625 0.140625 -1.082031 0.140625 -1.65625 C 0.140625 -2.488281 0.359375 -3.414062 0.796875 -4.4375 C 1.242188 -5.46875 1.820312 -6.34375 2.53125 -7.0625 C 3.238281 -7.789062 3.957031 -8.15625 4.6875 -8.15625 C 4.96875 -8.15625 5.195312 -8.050781 5.375 -7.84375 C 5.550781 -7.632812 5.65625 -7.347656 5.6875 -6.984375 L 5.921875 -7.9375 C 6.492188 -7.957031 6.96875 -8.03125 7.34375 -8.15625 L 5.421875 -1.328125 C 5.410156 -1.285156 5.390625 -1.203125 5.359375 -1.078125 C 5.328125 -0.960938 5.3125 -0.851562 5.3125 -0.75 C 5.3125 -0.5 5.425781 -0.375 5.65625 -0.375 C 6.101562 -0.375 6.5 -0.894531 6.84375 -1.9375 Z M 2.03125 -0.28125 C 2.320312 -0.28125 2.664062 -0.5 3.0625 -0.9375 C 3.46875 -1.382812 3.863281 -1.972656 4.25 -2.703125 C 4.632812 -3.441406 4.953125 -4.226562 5.203125 -5.0625 L 5.484375 -6.15625 C 5.492188 -6.238281 5.5 -6.351562 5.5 -6.5 C 5.5 -6.914062 5.421875 -7.242188 5.265625 -7.484375 C 5.117188 -7.734375 4.910156 -7.859375 4.640625 -7.859375 C 4.203125 -7.859375 3.734375 -7.515625 3.234375 -6.828125 C 2.742188 -6.140625 2.332031 -5.296875 2 -4.296875 C 1.664062 -3.296875 1.5 -2.351562 1.5 -1.46875 C 1.5 -1.039062 1.546875 -0.734375 1.640625 -0.546875 C 1.734375 -0.367188 1.863281 -0.28125 2.03125 -0.28125 Z M 2.03125 -0.28125 "/></g></g></g><g fill="#d9d9d9" fill-opacity="1"><g transform="translate(211.45069, 254.597671)"><g><path d="M 6.09375 -8.15625 C 6.375 -8.15625 6.597656 -8.070312 6.765625 -7.90625 C 6.929688 -7.738281 7.015625 -7.523438 7.015625 -7.265625 C 7.015625 -6.960938 6.90625 -6.703125 6.6875 -6.484375 C 6.46875 -6.265625 6.210938 -6.15625 5.921875 -6.15625 C 5.742188 -6.15625 5.597656 -6.203125 5.484375 -6.296875 C 5.367188 -6.398438 5.3125 -6.539062 5.3125 -6.71875 C 5.3125 -6.957031 5.375 -7.15625 5.5 -7.3125 C 5.625 -7.476562 5.789062 -7.609375 6 -7.703125 C 5.957031 -7.742188 5.898438 -7.765625 5.828125 -7.765625 C 5.273438 -7.765625 4.671875 -7.164062 4.015625 -5.96875 C 3.367188 -4.769531 2.753906 -3.1875 2.171875 -1.21875 L 1.875 0 L 0.53125 0 L 2.375 -6.625 C 2.445312 -6.851562 2.484375 -7.050781 2.484375 -7.21875 C 2.484375 -7.457031 2.375 -7.578125 2.15625 -7.578125 C 1.9375 -7.578125 1.726562 -7.457031 1.53125 -7.21875 C 1.34375 -6.976562 1.148438 -6.570312 0.953125 -6 L 0.75 -5.4375 L 0.46875 -5.4375 L 0.84375 -6.5625 C 1.21875 -7.625 1.84375 -8.15625 2.71875 -8.15625 C 3.300781 -8.15625 3.59375 -7.851562 3.59375 -7.25 C 3.59375 -6.96875 3.519531 -6.546875 3.375 -5.984375 L 2.890625 -4.046875 C 3.441406 -5.535156 3.960938 -6.59375 4.453125 -7.21875 C 4.941406 -7.84375 5.488281 -8.15625 6.09375 -8.15625 Z M 6.09375 -8.15625 "/></g></g></g><g fill="#d9d9d9" fill-opacity="1"><g transform="translate(218.798877, 254.597671)"><g><path d="M 1.875 -1.3125 C 1.84375 -1.1875 1.828125 -1.070312 1.828125 -0.96875 C 1.828125 -0.757812 1.882812 -0.601562 2 -0.5 C 2.125 -0.40625 2.285156 -0.359375 2.484375 -0.359375 C 2.742188 -0.359375 2.984375 -0.46875 3.203125 -0.6875 C 3.421875 -0.90625 3.640625 -1.3125 3.859375 -1.90625 L 4.078125 -2.5 L 4.375 -2.5 L 4.046875 -1.53125 C 3.828125 -0.894531 3.546875 -0.441406 3.203125 -0.171875 C 2.859375 0.0859375 2.4375 0.21875 1.9375 0.21875 C 1.46875 0.21875 1.117188 0.101562 0.890625 -0.125 C 0.671875 -0.351562 0.5625 -0.664062 0.5625 -1.0625 C 0.5625 -1.332031 0.601562 -1.625 0.6875 -1.9375 L 2.328125 -7.625 L 0.9375 -7.625 L 1.015625 -7.9375 L 2.40625 -7.9375 L 3.09375 -10.28125 C 3.644531 -10.300781 4.109375 -10.375 4.484375 -10.5 L 3.75 -7.9375 L 5.796875 -7.9375 L 5.75 -7.625 L 3.65625 -7.625 Z M 1.875 -1.3125 "/></g></g></g><g fill="#d9d9d9" fill-opacity="1"><g transform="translate(224.757799, 254.597671)"><g><path d="M 6.421875 -7.125 C 6.421875 -6.289062 5.953125 -5.5625 5.015625 -4.9375 C 4.078125 -4.3125 3.007812 -3.800781 1.8125 -3.40625 C 1.695312 -2.894531 1.640625 -2.398438 1.640625 -1.921875 C 1.640625 -0.929688 1.992188 -0.4375 2.703125 -0.4375 C 3.585938 -0.4375 4.378906 -0.945312 5.078125 -1.96875 L 5.328125 -1.859375 C 4.992188 -1.285156 4.546875 -0.796875 3.984375 -0.390625 C 3.429688 0.015625 2.84375 0.21875 2.21875 0.21875 C 1.582031 0.21875 1.082031 0.0351562 0.71875 -0.328125 C 0.363281 -0.703125 0.1875 -1.242188 0.1875 -1.953125 C 0.1875 -2.742188 0.414062 -3.628906 0.875 -4.609375 C 1.332031 -5.585938 1.953125 -6.421875 2.734375 -7.109375 C 3.515625 -7.804688 4.363281 -8.15625 5.28125 -8.15625 C 5.613281 -8.15625 5.882812 -8.066406 6.09375 -7.890625 C 6.3125 -7.710938 6.421875 -7.457031 6.421875 -7.125 Z M 4.9375 -7.859375 C 4.613281 -7.859375 4.242188 -7.664062 3.828125 -7.28125 C 3.421875 -6.894531 3.039062 -6.378906 2.6875 -5.734375 C 2.332031 -5.097656 2.066406 -4.421875 1.890625 -3.703125 C 2.859375 -4.046875 3.554688 -4.375 3.984375 -4.6875 C 4.359375 -4.988281 4.648438 -5.351562 4.859375 -5.78125 C 5.078125 -6.207031 5.1875 -6.664062 5.1875 -7.15625 C 5.1875 -7.4375 5.164062 -7.625 5.125 -7.71875 C 5.082031 -7.8125 5.019531 -7.859375 4.9375 -7.859375 Z M 4.9375 -7.859375 "/></g></g></g><g fill="#d9d9d9" fill-opacity="1"><g transform="translate(232.152302, 254.597671)"><g><path d="M 6.09375 -8.15625 C 6.375 -8.15625 6.597656 -8.070312 6.765625 -7.90625 C 6.929688 -7.738281 7.015625 -7.523438 7.015625 -7.265625 C 7.015625 -6.960938 6.90625 -6.703125 6.6875 -6.484375 C 6.46875 -6.265625 6.210938 -6.15625 5.921875 -6.15625 C 5.742188 -6.15625 5.597656 -6.203125 5.484375 -6.296875 C 5.367188 -6.398438 5.3125 -6.539062 5.3125 -6.71875 C 5.3125 -6.957031 5.375 -7.15625 5.5 -7.3125 C 5.625 -7.476562 5.789062 -7.609375 6 -7.703125 C 5.957031 -7.742188 5.898438 -7.765625 5.828125 -7.765625 C 5.273438 -7.765625 4.671875 -7.164062 4.015625 -5.96875 C 3.367188 -4.769531 2.753906 -3.1875 2.171875 -1.21875 L 1.875 0 L 0.53125 0 L 2.375 -6.625 C 2.445312 -6.851562 2.484375 -7.050781 2.484375 -7.21875 C 2.484375 -7.457031 2.375 -7.578125 2.15625 -7.578125 C 1.9375 -7.578125 1.726562 -7.457031 1.53125 -7.21875 C 1.34375 -6.976562 1.148438 -6.570312 0.953125 -6 L 0.75 -5.4375 L 0.46875 -5.4375 L 0.84375 -6.5625 C 1.21875 -7.625 1.84375 -8.15625 2.71875 -8.15625 C 3.300781 -8.15625 3.59375 -7.851562 3.59375 -7.25 C 3.59375 -6.96875 3.519531 -6.546875 3.375 -5.984375 L 2.890625 -4.046875 C 3.441406 -5.535156 3.960938 -6.59375 4.453125 -7.21875 C 4.941406 -7.84375 5.488281 -8.15625 6.09375 -8.15625 Z M 6.09375 -8.15625 "/></g></g></g></svg>